<mxfile host="app.diagrams.net" modified="2024-05-20T17:46:04.002Z" agent="Mozilla/5.0 (Windows NT 10.0; Win64; x64) AppleWebKit/537.36 (KHTML, like Gecko) Chrome/125.0.0.0 Safari/537.36" etag="1VAFiyNhS0QMnstosmDx" version="24.4.4" type="device">
  <diagram name="Page-1" id="XfbfhSThyYlq-g7E9yNi">
    <mxGraphModel dx="314" dy="336" grid="1" gridSize="10" guides="1" tooltips="1" connect="1" arrows="1" fold="1" page="1" pageScale="1" pageWidth="850" pageHeight="1100" math="0" shadow="0">
      <root>
        <mxCell id="0" />
        <mxCell id="1" parent="0" />
        <mxCell id="OeIUSfiR1FeeAdiLaBsW-1" value="Chatroom auswählen" style="rounded=1;whiteSpace=wrap;html=1;" parent="1" vertex="1">
          <mxGeometry x="240" y="320" width="120" height="60" as="geometry" />
        </mxCell>
        <mxCell id="OeIUSfiR1FeeAdiLaBsW-2" value="Mit Link zum Chatroom" style="rounded=1;whiteSpace=wrap;html=1;" parent="1" vertex="1">
          <mxGeometry x="400" y="320" width="120" height="60" as="geometry" />
        </mxCell>
        <mxCell id="OeIUSfiR1FeeAdiLaBsW-3" value="" style="endArrow=classic;html=1;rounded=0;" parent="1" source="OeIUSfiR1FeeAdiLaBsW-2" target="OeIUSfiR1FeeAdiLaBsW-1" edge="1">
          <mxGeometry width="50" height="50" relative="1" as="geometry">
            <mxPoint x="400" y="360" as="sourcePoint" />
            <mxPoint x="360" y="420" as="targetPoint" />
          </mxGeometry>
        </mxCell>
        <mxCell id="OeIUSfiR1FeeAdiLaBsW-4" value="Knopf &quot;Folgen&quot; drücken" style="rounded=1;whiteSpace=wrap;html=1;" parent="1" vertex="1">
          <mxGeometry x="240" y="440" width="120" height="60" as="geometry" />
        </mxCell>
        <mxCell id="OeIUSfiR1FeeAdiLaBsW-6" value="Knopf &quot;Folgen&quot; wieder drücken,&lt;br&gt;um zu entfolgen" style="rounded=1;whiteSpace=wrap;html=1;" parent="1" vertex="1">
          <mxGeometry x="320" y="560" width="120" height="60" as="geometry" />
        </mxCell>
        <mxCell id="OeIUSfiR1FeeAdiLaBsW-8" value="" style="endArrow=classic;html=1;rounded=0;" parent="1" source="OeIUSfiR1FeeAdiLaBsW-1" target="OeIUSfiR1FeeAdiLaBsW-4" edge="1">
          <mxGeometry width="50" height="50" relative="1" as="geometry">
            <mxPoint x="410" y="360" as="sourcePoint" />
            <mxPoint x="370" y="360" as="targetPoint" />
            <Array as="points" />
          </mxGeometry>
        </mxCell>
        <mxCell id="OeIUSfiR1FeeAdiLaBsW-10" value="" style="endArrow=classic;html=1;rounded=0;" parent="1" source="OeIUSfiR1FeeAdiLaBsW-4" target="OeIUSfiR1FeeAdiLaBsW-6" edge="1">
          <mxGeometry width="50" height="50" relative="1" as="geometry">
            <mxPoint x="190" y="380" as="sourcePoint" />
            <mxPoint x="190" y="440" as="targetPoint" />
            <Array as="points" />
          </mxGeometry>
        </mxCell>
      </root>
    </mxGraphModel>
  </diagram>
</mxfile>
